<svg width="22" height="22" viewBox="0 0 22 22" fill="none" xmlns="http://www.w3.org/2000/svg">
<path d="M16.785 3.91508C16.5279 3.91508 16.2766 3.99132 16.0628 4.13417C15.849 4.27702 15.6824 4.48005 15.584 4.71759C15.4856 4.95514 15.4598 5.21652 15.51 5.4687C15.5602 5.72087 15.684 5.95251 15.8658 6.13432C16.0476 6.31613 16.2792 6.43994 16.5314 6.4901C16.7836 6.54026 17.045 6.51452 17.2825 6.41612C17.5201 6.31773 17.7231 6.15111 17.8659 5.93732C18.0088 5.72354 18.085 5.4722 18.085 5.21508C18.085 4.8703 17.9481 4.53964 17.7043 4.29584C17.4605 4.05205 17.1298 3.91508 16.785 3.91508ZM21.7684 6.53675C21.7473 5.6379 21.5789 4.7486 21.27 3.90425C20.9946 3.18181 20.5658 2.52763 20.0134 1.98675C19.4769 1.43146 18.8212 1.00544 18.0959 0.740915C17.2537 0.422589 16.3634 0.250392 15.4634 0.231748C14.315 0.166748 13.9467 0.166748 11 0.166748C8.05335 0.166748 7.68502 0.166748 6.53669 0.231748C5.6366 0.250392 4.74631 0.422589 3.90419 0.740915C3.18017 1.00812 2.52503 1.43377 1.98669 1.98675C1.4314 2.52319 1.00538 3.17889 0.740854 3.90425C0.422528 4.74637 0.250331 5.63666 0.231687 6.53675C0.166687 7.68508 0.166687 8.05341 0.166687 11.0001C0.166687 13.9467 0.166687 14.3151 0.231687 15.4634C0.250331 16.3635 0.422528 17.2538 0.740854 18.0959C1.00538 18.8213 1.4314 19.477 1.98669 20.0134C2.52503 20.5664 3.18017 20.992 3.90419 21.2592C4.74631 21.5776 5.6366 21.7498 6.53669 21.7684C7.68502 21.8334 8.05335 21.8334 11 21.8334C13.9467 21.8334 14.315 21.8334 15.4634 21.7684C16.3634 21.7498 17.2537 21.5776 18.0959 21.2592C18.8212 20.9947 19.4769 20.5687 20.0134 20.0134C20.5683 19.4745 20.9974 18.8198 21.27 18.0959C21.5789 17.2516 21.7473 16.3623 21.7684 15.4634C21.7684 14.3151 21.8334 13.9467 21.8334 11.0001C21.8334 8.05341 21.8334 7.68508 21.7684 6.53675ZM19.8184 15.3334C19.8105 16.0211 19.6859 16.7024 19.45 17.3484C19.277 17.8199 18.9992 18.2459 18.6375 18.5942C18.2861 18.9523 17.861 19.2295 17.3917 19.4067C16.7457 19.6426 16.0644 19.7672 15.3767 19.7751C14.2934 19.8292 13.8925 19.8401 11.0434 19.8401C8.19419 19.8401 7.79335 19.8401 6.71002 19.7751C5.99599 19.7885 5.285 19.6785 4.60835 19.4501C4.15962 19.2638 3.75399 18.9873 3.41669 18.6376C3.05712 18.2896 2.78277 17.8632 2.61502 17.3917C2.35053 16.7365 2.20383 16.0397 2.18169 15.3334C2.18169 14.2501 2.11669 13.8492 2.11669 11.0001C2.11669 8.15091 2.11669 7.75008 2.18169 6.66675C2.18654 5.96372 2.31488 5.26702 2.56085 4.60841C2.75157 4.15115 3.04431 3.74354 3.41669 3.41675C3.74582 3.04426 4.15258 2.74844 4.60835 2.55008C5.2687 2.31179 5.96468 2.18725 6.66669 2.18175C7.75002 2.18175 8.15085 2.11675 11 2.11675C13.8492 2.11675 14.25 2.11675 15.3334 2.18175C16.021 2.18964 16.7024 2.31418 17.3484 2.55008C17.8407 2.73279 18.2825 3.02983 18.6375 3.41675C18.9925 3.74952 19.2699 4.15637 19.45 4.60841C19.6908 5.26809 19.8154 5.96451 19.8184 6.66675C19.8725 7.75008 19.8834 8.15091 19.8834 11.0001C19.8834 13.8492 19.8725 14.2501 19.8184 15.3334ZM11 5.44258C9.90131 5.44472 8.8279 5.77248 7.9154 6.38445C7.0029 6.99642 6.29226 7.86513 5.87329 8.88081C5.45432 9.8965 5.3458 11.0136 5.56146 12.0909C5.77712 13.1683 6.30728 14.1575 7.08494 14.9336C7.8626 15.7098 8.85286 16.238 9.93062 16.4516C11.0084 16.6651 12.1252 16.5544 13.1401 16.1335C14.155 15.7125 15.0223 15.0002 15.6325 14.0865C16.2427 13.1728 16.5683 12.0988 16.5684 11.0001C16.5698 10.2689 16.4267 9.54474 16.1472 8.86912C15.8677 8.1935 15.4575 7.57979 14.94 7.0633C14.4225 6.54681 13.808 6.13773 13.1318 5.85959C12.4556 5.58144 11.7312 5.43972 11 5.44258ZM11 14.6076C10.2865 14.6076 9.58905 14.396 8.9958 13.9996C8.40255 13.6032 7.94017 13.0398 7.66712 12.3806C7.39408 11.7214 7.32264 10.9961 7.46184 10.2963C7.60103 9.59651 7.94461 8.95371 8.44913 8.44919C8.95365 7.94467 9.59645 7.60109 10.2962 7.4619C10.996 7.3227 11.7214 7.39414 12.3806 7.66719C13.0397 7.94023 13.6031 8.40261 13.9995 8.99586C14.3959 9.58911 14.6075 10.2866 14.6075 11.0001C14.6075 11.4738 14.5142 11.9429 14.3329 12.3806C14.1516 12.8183 13.8859 13.216 13.5509 13.551C13.2159 13.886 12.8182 14.1517 12.3806 14.333C11.9429 14.5143 11.4738 14.6076 11 14.6076Z" fill="black"/>
</svg>
