<svg width="24" height="20" viewBox="0 0 24 20" fill="none" xmlns="http://www.w3.org/2000/svg">
<path d="M23.6666 2.76667C22.7897 3.14711 21.8623 3.39861 20.9133 3.51333C21.9145 2.91521 22.6648 1.97425 23.025 0.865C22.0841 1.42507 21.0542 1.81968 19.98 2.03167C19.2619 1.253 18.3058 0.73468 17.2614 0.557994C16.2171 0.381308 15.1436 0.556252 14.2094 1.05539C13.2752 1.55452 12.5331 2.34962 12.0994 3.31598C11.6658 4.28233 11.5652 5.36529 11.8133 6.395C9.91098 6.29878 8.05016 5.80345 6.35174 4.94117C4.65333 4.0789 3.1553 2.86898 1.95498 1.39C1.53397 2.1252 1.31275 2.95779 1.31331 3.805C1.31182 4.59178 1.5049 5.36672 1.87536 6.06083C2.24582 6.75493 2.78217 7.34666 3.43665 7.78333C2.67595 7.76264 1.93151 7.55852 1.26665 7.18833V7.24667C1.27235 8.34904 1.65864 9.41561 2.36018 10.266C3.06172 11.1163 4.03544 11.6982 5.11665 11.9133C4.70044 12.04 4.26833 12.1068 3.83331 12.1117C3.53218 12.1081 3.23181 12.0808 2.93498 12.03C3.24287 12.9783 3.83871 13.807 4.63957 14.4009C5.44043 14.9947 6.40648 15.3241 7.40331 15.3433C5.72005 16.6678 3.64184 17.3907 1.49998 17.3967C1.11 17.3979 0.720338 17.3746 0.333313 17.3267C2.52015 18.7386 5.06859 19.4882 7.67165 19.485C9.46795 19.5037 11.25 19.1642 12.9136 18.4864C14.5773 17.8087 16.0892 16.8062 17.361 15.5376C18.6329 14.269 19.6393 12.7596 20.3213 11.0977C21.0033 9.43582 21.3474 7.65468 21.3333 5.85833C21.3333 5.66 21.3333 5.45 21.3333 5.24C22.2488 4.55728 23.0384 3.72033 23.6666 2.76667Z" fill="black"/>
</svg>
